<?xml version="1.0" encoding="UTF-8" standalone="no"?>
<!-- Created with Inkscape (http://www.inkscape.org/) -->

<svg
   width="123.73082mm"
   height="125.39162mm"
   viewBox="0 0 123.73082 125.39162"
   version="1.1"
   id="svg1"
   xml:space="preserve"
   sodipodi:docname="medico-white.svg"
   xmlns:inkscape="http://www.inkscape.org/namespaces/inkscape"
   xmlns:sodipodi="http://sodipodi.sourceforge.net/DTD/sodipodi-0.dtd"
   xmlns="http://www.w3.org/2000/svg"
   xmlns:svg="http://www.w3.org/2000/svg"><sodipodi:namedview
     id="namedview1"
     pagecolor="#505050"
     bordercolor="#eeeeee"
     borderopacity="1"
     inkscape:showpageshadow="0"
     inkscape:pageopacity="0"
     inkscape:pagecheckerboard="0"
     inkscape:deskcolor="#505050"
     inkscape:document-units="mm" /><defs
     id="defs1" /><g
     inkscape:label="Capa 1"
     inkscape:groupmode="layer"
     id="layer1"
     transform="translate(-337.19685,100.42228)"><g
       id="g4"
       transform="matrix(0.26458333,0,0,0.26458333,331.37485,-105.47025)"
       style="fill:#ffffff"><path
         fill="#000000"
         d="m 287.49,231.99 c -2.8,19.8 -11.69,38.77 -27.68,51.19 a 0.96,0.95 61.8 0 0 -0.32,1.08 l 6.33,17.95 q 0.22,0.63 0.85,0.84 l 4.32,1.45 q 0.47,0.17 0.77,-0.24 c 30.85,-42.55 82.56,-60.92 133.06,-45.86 44.03,13.13 77.3,52.18 83.67,98.16 9.35,67.49 -38.98,128.1 -105.82,135.66 Q 375.76,493 362.7,493 203.22,493 43.75,493 C 32.86,493 25.34,482.02 23.06,472.1 q -1,-4.34 -1.02,-14.41 -0.08,-28.84 0.02,-57.7 c 0.23,-68.28 85.42,-83.9 134.69,-98.17 q 0.42,-0.12 0.61,-0.51 l 8.59,-17.59 q 0.24,-0.5 -0.19,-0.85 c -15.83,-12.93 -24.28,-30.8 -27.55,-50.72 q -0.09,-0.51 -0.57,-0.69 -11.96,-4.43 -19.62,-15.23 c -8.73,-12.29 -18.84,-34.88 -8.95,-48.4 q 4.75,-6.48 12.45,-7.66 a 0.68,0.68 0 0 0 0.55,-0.85 c -3.84,-13.58 -8.09,-28.89 -7.88,-42.87 0.45,-31.22 11.53,-54.35 35.48,-74.33 39.18,-32.67 99.93,-30.72 135.74,6.63 11.88,12.39 18.92,28.55 19.48,45.57 q 1.07,32.1 -3.19,64.42 -0.13,0.95 0.83,0.96 c 9.1,0.12 15.87,7.85 17.59,16.39 1.24,6.2 0.32,10.84 -1.47,17.39 -4.28,15.74 -14.79,32.33 -30.6,37.83 q -0.48,0.17 -0.56,0.68 z M 273.72,56.87 c -40.63,-39.73 -106.28,-27.63 -135,18.58 -10.32,16.6 -12.55,37.97 -9.03,57.16 a 0.53,0.53 0 0 0 1.05,-0.01 c 3.13,-19.41 15.69,-38.55 37.52,-38.64 7.23,-0.03 11.28,5.54 13.59,11.85 5.82,15.83 9.55,30.4 28.89,34.1 a 0.43,0.43 0 0 0 0.4,-0.71 c -4.15,-4.65 -9.56,-12.53 -5.18,-18.63 2.27,-3.16 6.01,-4.25 9.8,-3.87 q 9.35,0.94 18.74,1.11 c 15.6,0.28 21.67,-9.77 28.14,-22.39 3.37,-6.58 9.5,-5.18 13.26,-0.08 q 10.11,13.71 14.04,30.59 a 0.5,0.5 0 0 0 0.98,-0.1 c 0.53,-25.89 2.96,-49.26 -17.2,-68.96 z m 21.01,122.16 c -3.59,1.95 -9.91,0.08 -10.32,-4.51 -1.75,-19.97 -5.33,-44.08 -14.12,-62.28 q -0.49,-1.02 -1.08,-0.05 c -10.88,17.92 -26.16,20.84 -45.68,19.13 a 0.33,0.33 0 0 0 -0.27,0.55 c 2.73,2.97 9.78,8.81 10.98,12.24 1.51,4.34 -1.45,8.6 -5.99,9.24 -21.58,3.05 -41.13,-2.42 -51.4,-22.93 -3.57,-7.13 -5.62,-14.53 -8.83,-21.75 a 1.33,1.33 0 0 0 -1.36,-0.77 c -23.88,2.72 -25.79,42.32 -25.14,59.38 0.27,7.1 -5.11,15.6 -12.34,9.79 -2.03,-1.63 -3.81,-3.75 -6.54,-2.81 -3.64,1.26 -4.02,6.68 -3.4,9.88 2.23,11.42 9.65,29.11 21.59,33.47 2.81,1.02 6.45,0.14 9.02,3.38 q 1.31,1.64 1.76,5.86 c 2.84,26.42 17.66,49.2 44.99,54.92 40.91,8.56 74.5,-13.15 77.48,-56.03 0.36,-5.23 2.84,-6.72 7.97,-7.45 12.79,-1.8 21.89,-21.65 24.2,-33.13 0.79,-3.93 -0.45,-15.79 -7.45,-10.32 -1.42,1.12 -2.16,3.16 -4.07,4.19 z M 475.66,373.07 A 105.84,105.84 0 0 0 369.82,267.23 105.84,105.84 0 0 0 263.98,373.07 105.84,105.84 0 0 0 369.82,478.91 105.84,105.84 0 0 0 475.66,373.07 Z M 263.41,316.69 c -4.12,-0.95 -7.89,-2.04 -9.45,-6.25 q -3.38,-9.1 -6.59,-18.62 -0.3,-0.87 -1.15,-0.53 c -21.43,8.37 -45.91,8.68 -67.49,-0.54 q -0.52,-0.22 -0.77,0.29 -4.42,9.03 -8.88,18.08 c -1.96,3.97 -4.67,5.62 -8.85,6.05 a 0.98,0.97 78.5 0 0 -0.83,1.26 c 12.54,41.16 63.87,53.64 93.71,23.22 q 1.77,-1.81 2.8,-4.48 3.49,-9.15 7.78,-17.89 a 0.42,0.42 0 0 0 -0.28,-0.59 z m 48.18,161.12 C 269.37,453.83 245.51,408.39 250.66,360.27 a 0.31,0.31 0 0 0 -0.47,-0.3 c -38.93,23.56 -91.51,5.73 -104.21,-39.77 q -0.14,-0.52 -0.66,-0.38 -22.94,5.94 -45.3,13.72 C 69.28,344.22 36.25,362.59 36.1,399.99 q -0.14,32.1 -0.05,64.19 C 36.06,467.41 39.02,479 44,479 q 134.34,0 268.48,0 a 0.48,0.48 0 0 0 0.08,-0.95 c -0.38,-0.07 -0.6,-0.03 -0.97,-0.24 z"
         id="path1-0"
         style="fill:#ffffff" /><path
         fill="#000000"
         d="m 312.75,398 c -6.04,0 -8.71,-5.76 -8.73,-10.93 q -0.04,-11.1 -0.02,-22.19 c 0.01,-9.03 2.61,-12.9 11.74,-12.89 q 14.38,0.02 28.73,0.01 a 0.53,0.52 90 0 0 0.52,-0.53 q 0.02,-13.21 0,-26.58 c -0.01,-9.05 2.61,-12.91 11.75,-12.9 q 10.8,0.02 21.6,0.01 c 8.21,-0.02 12.63,1.95 12.65,10.63 q 0.03,14.43 0,28.84 a 0.53,0.53 0 0 0 0.53,0.53 q 13.46,0.01 27.08,0 c 8.36,-0.01 12.37,2.25 12.39,10.87 q 0.02,11.56 0.01,23.11 c -0.01,7.93 -2.35,11.97 -10.52,12 q -14.49,0.05 -28.95,0.01 a 0.53,0.53 0 0 0 -0.53,0.53 q 0,14.12 0,28.4 c 0,8.23 -2.45,12.04 -10.82,12.06 q -11.23,0.04 -22.46,0.02 c -8.19,-0.01 -12.69,-2.33 -12.71,-10.9 q -0.03,-14.79 0,-29.57 A 0.53,0.53 0 0 0 344.48,398 q -15.76,0 -31.73,0 z m 46.23,-41.76 c -0.02,6.52 -4.05,9.8 -10.34,9.77 q -15.02,-0.08 -30.15,0.02 a 0.5,0.49 -0.6 0 0 -0.49,0.49 v 16.96 q 0,0.48 0.48,0.49 14.1,0.1 28.2,0.01 c 9.5,-0.05 12.37,2.96 12.32,12.74 q -0.06,13.85 0.03,27.79 a 0.49,0.49 0 0 0 0.49,0.49 h 16.96 q 0.48,0 0.48,-0.48 0.11,-14.24 0.02,-28.49 c -0.05,-9.3 3.69,-12.08 12.99,-12.03 q 13.22,0.06 26.54,-0.03 A 0.49,0.49 0 0 0 417,383.48 V 366.5 a 0.51,0.51 0 0 0 -0.51,-0.51 q -14.13,0.03 -28.28,-0.01 c -8.76,-0.02 -11.26,-4.24 -11.21,-12.77 q 0.06,-13.31 -0.03,-26.72 A 0.49,0.49 0 0 0 376.48,326 H 359.5 a 0.51,0.51 0 0 0 -0.51,0.51 q 0.03,14.85 -0.01,29.73 z"
         id="path2"
         style="fill:#ffffff" /></g></g></svg>
